<?xml version="1.0" encoding="UTF-8"?>
<!DOCTYPE svg PUBLIC "-//W3C//DTD SVG 1.1//EN" "http://www.w3.org/Graphics/SVG/1.1/DTD/svg11.dtd">
<!-- Creator: CorelDRAW X6 -->
<svg xmlns="http://www.w3.org/2000/svg" xml:space="preserve" width="5.82677in" height="4.13386in" version="1.1" style="shape-rendering:geometricPrecision; text-rendering:geometricPrecision; image-rendering:optimizeQuality; fill-rule:evenodd; clip-rule:evenodd"
viewBox="0 0 5827 4134"
 xmlns:xlink="http://www.w3.org/1999/xlink">
 <defs>
  <style type="text/css">
   <![CDATA[
    .fil0 {fill:none}
    .fil1 {fill:#373435}
   ]]>
  </style>
 </defs>
 <g id="Layer_x0020_1">
  <metadata id="CorelCorpID_0Corel-Layer"/>
  <g id="_321426880">
   <rect class="fil0" width="5827" height="4134"/>
   <g>
    <path class="fil1" d="M4714 3670c0,0 0,4 0,-698l-288 0c0,701 0,698 0,698l288 0z"/>
    <path class="fil1" d="M3190 3380l0 -397 -279 0 0 304c0,88 -4,113 -9,136 -19,64 -87,92 -155,92 -95,0 -140,-37 -157,-95 -5,-19 -7,-41 -9,-62 -2,-23 0,-48 0,-74l0 -300 -283 0 0 399c0,90 30,157 79,203 85,83 228,108 360,108 161,0 284,-23 373,-110 46,-44 79,-102 80,-203z"/>
    <path class="fil1" d="M1819 3330c-9,-2 -25,-4 -42,-4l-318 0c-16,0 -34,2 -42,4 5,-5 16,-16 27,-30l143 -237c19,-32 28,-53 32,-62 4,9 12,30 32,64l147 238c7,11 18,21 23,26zm534 339l-636 -954 -357 0 94 111c2,2 5,4 9,5 -4,2 -7,4 -9,5l-555 832 322 0 87 -143c4,-7 5,-14 5,-18 4,0 12,4 21,4l574 0c9,0 16,-2 19,-4 0,4 0,9 4,14l90 147 332 0z"/>
    <path class="fil1" d="M4348 3311c0,-78 -32,-168 -131,-293l-238 -302 -332 0 189 212c32,35 72,67 72,67 -46,-27 -104,-37 -150,-37 -110,0 -221,23 -320,78 -106,58 -177,155 -177,284 0,99 44,175 101,233 127,127 359,140 443,140 125,0 322,-28 433,-129 65,-60 110,-143 110,-253zm-276 9c0,72 -48,127 -108,157 -49,26 -108,34 -159,34 -51,0 -111,-11 -161,-35 -60,-30 -106,-88 -106,-152 0,-76 58,-136 127,-166 42,-19 94,-27 134,-27 39,0 95,5 140,23 80,34 132,97 132,166z"/>
    <path class="fil1" d="M4623 441c-215,0 -413,74 -570,198 -157,-124 -354,-198 -570,-198 -215,0 -413,74 -570,198 -157,-124 -354,-198 -570,-198 -215,0 -413,74 -570,198 -157,-124 -354,-198 -570,-198 -508,0 -919,411 -919,919 0,508 411,919 919,919 215,0 413,-74 570,-198 157,124 355,198 570,198 215,0 413,-74 570,-198 157,124 355,198 570,198 215,0 413,-74 570,-198 157,124 354,198 570,198 508,0 919,-411 919,-919 0,-508 -411,-919 -919,-919zm-2999 1490c-117,85 -263,138 -419,138 -392,0 -708,-317 -708,-708 0,-392 317,-708 708,-708 156,0 302,52 419,138 -125,157 -199,355 -199,571 0,215 75,414 199,571zm150 -150c-87,-118 -139,-263 -139,-421 0,-158 51,-303 139,-421 87,118 139,263 139,421 0,158 -51,303 -139,421zm989 150c-118,87 -263,137 -420,137 -157,0 -301,-51 -419,-137 124,-157 199,-356 199,-571 0,-216 -74,-414 -199,-571 118,-86 262,-137 419,-137 157,0 302,51 420,137 -125,157 -199,355 -199,571 0,215 75,414 199,571zm150 -150c-87,-118 -139,-263 -139,-421 0,-158 51,-303 139,-421 87,118 139,263 139,421 0,158 -51,303 -139,421zm989 150c-118,87 -263,137 -420,137 -157,0 -301,-51 -419,-137 124,-157 199,-356 199,-571 0,-216 -74,-414 -199,-571 118,-86 262,-137 419,-137 157,0 302,51 420,137 -125,157 -199,355 -199,571 0,215 75,414 199,571zm150 -150c-87,-118 -139,-263 -139,-421 0,-158 51,-303 139,-421 87,118 139,263 139,421 0,158 -51,303 -139,421zm570 287c-156,0 -302,-52 -419,-138 124,-157 199,-356 199,-571 0,-216 -74,-414 -199,-571 117,-85 263,-138 419,-138 392,0 708,317 708,708 0,392 -317,708 -708,708z"/>
   </g>
  </g>
 </g>
</svg>
