<?xml version="1.0" encoding="utf-8"?>
<!-- Generator: Adobe Illustrator 19.2.1, SVG Export Plug-In . SVG Version: 6.00 Build 0)  -->
<svg version="1.1" id="Layer_1" xmlns="http://www.w3.org/2000/svg" xmlns:xlink="http://www.w3.org/1999/xlink" x="0px" y="0px"
	 viewBox="0 0 595.3 212.6" style="enable-background:new 0 0 595.3 212.6;" xml:space="preserve">
<style type="text/css">
	.st0{fill:#FFFFFF;}
</style>
<g>
	<path class="st0" d="M97.7,80.4h13.7c13.2,0,19.8,5.1,19.8,15.4c0,5.4-1.8,9.5-5.5,12.3s-8.9,4.3-15.7,4.3h-6.2v20.8h-6.1V80.4z
		 M103.9,85.7v21.5h5.5c5.5,0,9.4-0.9,11.8-2.7c2.4-1.8,3.6-4.5,3.6-8.2c0-3.7-1.2-6.4-3.5-8.1c-2.3-1.7-5.9-2.6-10.7-2.6H103.9z"/>
	<path class="st0" d="M182.2,80.4v34.2c0,6.1-1.8,10.8-5.5,14.2s-8.6,5.2-15,5.2c-6.3,0-11.3-1.7-14.8-5.2
		c-3.5-3.5-5.2-8.2-5.2-14.3V80.4h6.1v34.5c0,4.4,1.2,7.8,3.6,10.2s5.9,3.5,10.5,3.5c4.6,0,8-1.2,10.5-3.6c2.4-2.4,3.6-5.8,3.6-10.2
		V80.4H182.2z"/>
	<path class="st0" d="M207.5,128.6c4,0,7.1-0.8,9.2-2.3c2.1-1.5,3.1-3.7,3.1-6.5c0-1.8-0.4-3.3-1.1-4.5c-0.7-1.2-2-2.3-3.7-3.2
		c-1.7-1-4.3-2.1-7.9-3.4c-4.9-1.8-8.5-3.9-10.6-6.3c-2.1-2.4-3.1-5.6-3.1-9.6c0-4,1.5-7.2,4.6-9.6c3.1-2.4,7.2-3.6,12.3-3.6
		c5.1,0,9.9,1,14.3,2.9l-1.9,5.4c-4.3-1.8-8.6-2.7-12.7-2.7c-3.3,0-5.8,0.7-7.6,2.1c-1.8,1.4-2.7,3.3-2.7,5.8c0,1.8,0.3,3.3,1,4.5
		c0.7,1.2,1.8,2.2,3.3,3.2c1.6,1,4,2,7.4,3.3c5.6,2,9.4,4.2,11.5,6.4c2.1,2.3,3.1,5.2,3.1,8.8c0,4.6-1.7,8.2-5.1,10.9
		c-3.4,2.6-8.1,3.9-14.1,3.9c-6.1,0-10.7-0.8-14.1-2.4v-5.9C197.4,127.6,202.3,128.6,207.5,128.6z"/>
	<path class="st0" d="M277,133.3h-6.1v-24.9H243v24.9h-6.1V80.4h6.1v22.5h27.8V80.4h6.1V133.3z"/>
	<path class="st0" d="M322,128.6c4.1,0,7.1-0.8,9.2-2.3c2.1-1.5,3.1-3.7,3.1-6.5c0-1.8-0.4-3.3-1.1-4.5c-0.7-1.2-2-2.3-3.7-3.2
		c-1.7-1-4.3-2.1-7.9-3.4c-4.9-1.8-8.5-3.9-10.6-6.3c-2.1-2.4-3.1-5.6-3.1-9.6c0-4,1.5-7.2,4.6-9.6c3.1-2.4,7.2-3.6,12.3-3.6
		s9.9,1,14.3,2.9l-1.9,5.4c-4.3-1.8-8.6-2.7-12.7-2.7c-3.3,0-5.8,0.7-7.6,2.1c-1.8,1.4-2.7,3.3-2.7,5.8c0,1.8,0.3,3.3,1,4.5
		c0.7,1.2,1.8,2.2,3.3,3.2c1.6,1,4,2,7.4,3.3c5.6,2,9.4,4.2,11.5,6.4c2.1,2.3,3.1,5.2,3.1,8.8c0,4.6-1.7,8.2-5.1,10.9
		c-3.4,2.6-8.1,3.9-14.1,3.9c-6.1,0-10.7-0.8-14.1-2.4v-5.9C312,127.6,316.9,128.6,322,128.6z"/>
	<path class="st0" d="M367.9,133.3h-6.2v-20.2l-17.6-32.7h6.7l14,26.4l14.1-26.4h6.7l-17.6,32.4V133.3z"/>
	<path class="st0" d="M404.1,128.6c4.1,0,7.1-0.8,9.2-2.3c2.1-1.5,3.1-3.7,3.1-6.5c0-1.8-0.4-3.3-1.1-4.5c-0.7-1.2-2-2.3-3.7-3.2
		c-1.7-1-4.3-2.1-7.9-3.4c-4.9-1.8-8.5-3.9-10.6-6.3c-2.1-2.4-3.1-5.6-3.1-9.6c0-4,1.5-7.2,4.6-9.6c3.1-2.4,7.2-3.6,12.3-3.6
		s9.9,1,14.3,2.9l-1.9,5.4c-4.3-1.8-8.6-2.7-12.7-2.7c-3.3,0-5.8,0.7-7.6,2.1c-1.8,1.4-2.7,3.3-2.7,5.8c0,1.8,0.3,3.3,1,4.5
		c0.7,1.2,1.8,2.2,3.3,3.2c1.6,1,4,2,7.4,3.3c5.6,2,9.4,4.2,11.5,6.4c2.1,2.3,3.1,5.2,3.1,8.8c0,4.6-1.7,8.2-5.1,10.9
		c-3.4,2.6-8.1,3.9-14.1,3.9c-6.1,0-10.7-0.8-14.1-2.4v-5.9C394.1,127.6,399,128.6,404.1,128.6z"/>
	<path class="st0" d="M466.5,85.9h-16.7v47.4h-6.1V85.9h-16.7v-5.5h39.6V85.9z"/>
	<path class="st0" d="M504,85.9h-23.3v17h21.9v5.4h-21.9v19.5H504v5.5h-29.5V80.4H504V85.9z"/>
	<path class="st0" d="M568,133.3h-6.1V99.2c0-3.7,0.2-8,0.5-12.7h-0.3L544,133.3h-4.9l-17.9-46.9h-0.3c0.3,3.9,0.5,8.3,0.5,13.2
		v33.6h-5.7V80.4h9.3l16.7,43.6h0.3l16.9-43.6h9.2V133.3z"/>
</g>
<g>
	<path class="st0" d="M20,125v-15.7l33.6-4.5L20,100.3V84.6l47.1,20.2L20,125z"/>
</g>
</svg>
