<?xml version="1.0" encoding="utf-8"?>
<!-- Generator: Adobe Illustrator 19.2.1, SVG Export Plug-In . SVG Version: 6.00 Build 0)  -->
<svg version="1.1" id="Layer_1" xmlns="http://www.w3.org/2000/svg" xmlns:xlink="http://www.w3.org/1999/xlink" x="0px" y="0px"
	 viewBox="0 0 240 25" style="enable-background:new 0 0 240 25;" xml:space="preserve">
<style type="text/css">
	.st0{fill:#FFFFFF;stroke:#FFFFFF;stroke-width:2.6712;stroke-linecap:round;stroke-linejoin:round;stroke-miterlimit:10;}
	.st1{fill:#FFFFFF;}
</style>
<g>
	<g>
		<g>
			<line class="st0" x1="1.3" y1="1.3" x2="26.7" y2="1.3"/>
		</g>
		<g>
			<line class="st0" x1="2.7" y1="6.7" x2="22.9" y2="6.7"/>
		</g>
		<g>
			<line class="st0" x1="10.7" y1="12" x2="25.5" y2="12"/>
		</g>
		<g>
			<line class="st0" x1="13.8" y1="17.4" x2="23.3" y2="17.4"/>
		</g>
		<g>
			<line class="st0" x1="11.4" y1="22.7" x2="16.2" y2="22.7"/>
		</g>
	</g>
	<g>
		<path class="st1" d="M60.2,5c0.3-0.6,0.7-0.9,1.3-0.9h1.1c0.2,0,0.4,0.1,0.6,0.2c0.2,0.2,0.2,0.3,0.2,0.6v19
			c0,0.2-0.1,0.4-0.2,0.6c-0.2,0.2-0.3,0.2-0.6,0.2h-1.2c-0.2,0-0.4-0.1-0.6-0.2s-0.2-0.3-0.2-0.6V9.9L56,18.8
			c-0.2,0.3-0.3,0.5-0.5,0.7s-0.4,0.2-0.7,0.2h-1.1c-0.3,0-0.5-0.1-0.7-0.2c-0.2-0.2-0.4-0.4-0.5-0.7l-4.6-8.8v13.9
			c0,0.2-0.1,0.4-0.2,0.6s-0.3,0.2-0.6,0.2h-1.2c-0.2,0-0.4-0.1-0.6-0.2s-0.2-0.3-0.2-0.6v-19c0-0.2,0.1-0.4,0.2-0.6
			c0.2-0.2,0.3-0.2,0.6-0.2H47c0.5,0,1,0.3,1.3,0.9l5.9,11.5L60.2,5z"/>
		<path class="st1" d="M80.2,17c0,0.5,0,0.9-0.1,1.4c-0.2,2-0.9,3.6-2.1,4.8c-1.2,1.2-2.8,1.8-4.9,1.8c-2.1,0-3.7-0.6-4.9-1.8
			c-1.2-1.2-1.9-2.8-2.1-4.8c0-0.2,0-0.7,0-1.4c0-0.7,0-1.2,0-1.4c0.2-2,0.8-3.6,2.1-4.8s2.9-1.8,4.9-1.8c2.1,0,3.7,0.6,4.9,1.8
			c1.2,1.2,1.9,2.8,2.1,4.8C80.2,16.1,80.2,16.5,80.2,17z M76.2,12.8c-0.7-0.8-1.7-1.1-3-1.1s-2.3,0.4-3,1.1c-0.7,0.8-1.1,1.8-1.2,3
			c0,0.2,0,0.7,0,1.3c0,0.6,0,1,0,1.2c0.1,1.3,0.5,2.3,1.2,3c0.7,0.8,1.7,1.1,3,1.1c1.3,0,2.3-0.4,3-1.1c0.7-0.8,1.1-1.8,1.2-3
			c0-0.4,0.1-0.8,0.1-1.2s0-0.8-0.1-1.3C77.4,14.5,76.9,13.5,76.2,12.8z"/>
		<path class="st1" d="M97.2,17c0,0.5,0,0.8,0,1c-0.1,1.4-0.4,2.6-1,3.7c-0.6,1.1-1.4,1.9-2.4,2.4c-1,0.6-2.1,0.9-3.3,0.9
			c-2,0-3.6-0.7-4.6-2v0.9c0,0.2-0.1,0.4-0.2,0.6c-0.2,0.2-0.3,0.2-0.6,0.2h-1.1c-0.2,0-0.4-0.1-0.6-0.2s-0.2-0.3-0.2-0.6V4.6
			c0-0.2,0.1-0.4,0.2-0.6c0.2-0.2,0.3-0.2,0.6-0.2h1.1c0.2,0,0.4,0.1,0.6,0.2C85.9,4.2,86,4.4,86,4.6v6.5c0.4-0.6,1-1,1.8-1.4
			c0.8-0.4,1.7-0.6,2.8-0.6c1.2,0,2.3,0.3,3.3,0.9c1,0.6,1.8,1.4,2.4,2.4c0.6,1,0.9,2.3,1,3.7C97.2,16.2,97.2,16.6,97.2,17z
			 M93.3,21.2c0.7-0.8,1.2-1.9,1.3-3.4c0-0.2,0-0.5,0-0.8c0-1.7-0.4-3-1.1-4c-0.8-1-1.8-1.5-3.2-1.5c-1.2,0-2.2,0.4-3,1.1
			c-0.7,0.8-1.2,1.8-1.3,3.2c0,0.2,0,0.6,0,1.1c0,0.6,0,1,0,1.2c0.1,1.3,0.5,2.3,1.3,3c0.8,0.7,1.8,1.1,3,1.1
			C91.5,22.4,92.5,22,93.3,21.2z"/>
		<path class="st1" d="M103,6.8c-0.2,0.2-0.3,0.2-0.6,0.2h-1.7c-0.2,0-0.4-0.1-0.6-0.2c-0.2-0.2-0.2-0.3-0.2-0.6V4.6
			c0-0.2,0.1-0.4,0.2-0.6c0.2-0.2,0.3-0.2,0.6-0.2h1.7c0.2,0,0.4,0.1,0.6,0.2c0.2,0.2,0.2,0.3,0.2,0.6v1.7
			C103.2,6.5,103.2,6.7,103,6.8z M102.7,24.4c-0.2,0.2-0.3,0.2-0.6,0.2h-1.1c-0.2,0-0.4-0.1-0.6-0.2s-0.2-0.3-0.2-0.6V10.2
			c0-0.2,0.1-0.4,0.2-0.6c0.2-0.2,0.3-0.2,0.6-0.2h1.1c0.2,0,0.4,0.1,0.6,0.2c0.2,0.2,0.2,0.3,0.2,0.6v13.7
			C103,24.1,102.9,24.3,102.7,24.4z"/>
		<path class="st1" d="M109.2,24.4c-0.2,0.2-0.3,0.2-0.6,0.2h-1.1c-0.2,0-0.4-0.1-0.6-0.2c-0.2-0.2-0.2-0.3-0.2-0.6V4.6
			c0-0.2,0.1-0.4,0.2-0.6c0.2-0.2,0.3-0.2,0.6-0.2h1.1c0.2,0,0.4,0.1,0.6,0.2c0.2,0.2,0.2,0.3,0.2,0.6v19.3
			C109.5,24.1,109.4,24.3,109.2,24.4z"/>
		<path class="st1" d="M124.3,11.1c1.2,1.3,1.8,3.1,1.8,5.4v0.8c0,0.2-0.1,0.4-0.2,0.6c-0.2,0.2-0.3,0.2-0.6,0.2h-10.1v0.2
			c0,1.3,0.4,2.3,1.2,3c0.8,0.7,1.7,1.1,2.9,1.1c1,0,1.7-0.1,2.3-0.4c0.5-0.3,1-0.6,1.5-1.1c0.2-0.2,0.3-0.3,0.4-0.3
			c0.1-0.1,0.3-0.1,0.5-0.1h0.9c0.2,0,0.4,0.1,0.6,0.2c0.2,0.2,0.2,0.3,0.2,0.6c-0.1,0.5-0.4,1.1-0.9,1.6c-0.5,0.6-1.2,1-2.1,1.4
			c-0.9,0.4-2,0.6-3.3,0.6c-1.3,0-2.4-0.3-3.3-0.9c-1-0.6-1.8-1.4-2.3-2.4c-0.6-1-0.9-2.2-1-3.4c0-0.6-0.1-1-0.1-1.4
			c0-0.3,0-0.8,0.1-1.4c0.1-1.2,0.5-2.3,1-3.3c0.6-1,1.4-1.8,2.3-2.3s2.1-0.9,3.4-0.9C121.4,9.1,123,9.7,124.3,11.1z M123.4,15.6
			L123.4,15.6c0-1.3-0.4-2.2-1.1-3c-0.8-0.7-1.8-1.1-3-1.1c-1.1,0-2.1,0.4-2.9,1.1c-0.8,0.7-1.2,1.7-1.2,2.9v0.1H123.4z"/>
		<path class="st1" d="M149.7,4.3c0.2,0.2,0.2,0.3,0.2,0.6v1.1c0,0.2-0.1,0.4-0.2,0.6c-0.2,0.2-0.3,0.2-0.6,0.2h-5.5v17.1
			c0,0.2-0.1,0.4-0.2,0.6c-0.2,0.2-0.3,0.2-0.6,0.2h-1.2c-0.2,0-0.4-0.1-0.6-0.2s-0.2-0.3-0.2-0.6V6.7h-5.5c-0.2,0-0.4-0.1-0.6-0.2
			c-0.2-0.2-0.2-0.3-0.2-0.6V4.9c0-0.2,0.1-0.4,0.2-0.6c0.2-0.2,0.3-0.2,0.6-0.2h13.8C149.3,4.1,149.5,4.2,149.7,4.3z"/>
		<path class="st1" d="M162.1,17c0,0.5,0,0.9-0.1,1.4c-0.2,2-0.9,3.6-2.1,4.8c-1.2,1.2-2.8,1.8-4.9,1.8c-2.1,0-3.7-0.6-4.9-1.8
			s-1.9-2.8-2.1-4.8c0-0.2,0-0.7,0-1.4c0-0.7,0-1.2,0-1.4c0.2-2,0.8-3.6,2.1-4.8c1.2-1.2,2.9-1.8,4.9-1.8c2.1,0,3.7,0.6,4.9,1.8
			c1.2,1.2,1.9,2.8,2.1,4.8C162.1,16.1,162.1,16.5,162.1,17z M158.1,12.8c-0.7-0.8-1.7-1.1-3-1.1c-1.3,0-2.3,0.4-3,1.1
			c-0.7,0.8-1.1,1.8-1.2,3c0,0.2,0,0.7,0,1.3c0,0.6,0,1,0,1.2c0.1,1.3,0.5,2.3,1.2,3c0.7,0.8,1.7,1.1,3,1.1s2.3-0.4,3-1.1
			c0.7-0.8,1.1-1.8,1.2-3c0-0.4,0.1-0.8,0.1-1.2s0-0.8-0.1-1.3C159.2,14.5,158.8,13.5,158.1,12.8z"/>
		<path class="st1" d="M173.5,9.6c0.2,0.2,0.2,0.3,0.2,0.6v0.9c0,0.2-0.1,0.4-0.2,0.6c-0.2,0.2-0.3,0.2-0.6,0.2h-1.7
			c-1.1,0-1.9,0.3-2.5,0.9c-0.6,0.6-0.9,1.4-0.9,2.5v8.6c0,0.2-0.1,0.4-0.2,0.6s-0.3,0.2-0.6,0.2H166c-0.2,0-0.4-0.1-0.6-0.2
			s-0.2-0.3-0.2-0.6V10.2c0-0.2,0.1-0.4,0.2-0.6c0.2-0.2,0.3-0.2,0.6-0.2h1.1c0.2,0,0.4,0.1,0.6,0.2c0.2,0.2,0.2,0.3,0.2,0.6v0.9
			c0.4-0.6,0.9-1,1.4-1.3c0.5-0.3,1.3-0.4,2.1-0.4h1.5C173.1,9.4,173.3,9.5,173.5,9.6z"/>
		<path class="st1" d="M189.6,24.4c-0.2,0.2-0.3,0.2-0.6,0.2H188c-0.2,0-0.4-0.1-0.6-0.2s-0.2-0.3-0.2-0.6v-7.8
			c0-1.5-0.4-2.6-1.1-3.4c-0.7-0.8-1.7-1.1-3-1.1c-1.3,0-2.3,0.4-3,1.1c-0.7,0.8-1.1,1.9-1.1,3.4v7.8c0,0.2-0.1,0.4-0.2,0.6
			s-0.3,0.2-0.6,0.2h-1.1c-0.2,0-0.4-0.1-0.6-0.2c-0.2-0.2-0.2-0.3-0.2-0.6V10.2c0-0.2,0.1-0.4,0.2-0.6c0.2-0.2,0.3-0.2,0.6-0.2h1.1
			c0.2,0,0.4,0.1,0.6,0.2c0.2,0.2,0.2,0.3,0.2,0.6v0.9c0.4-0.6,1-1,1.8-1.4s1.7-0.6,2.8-0.6c1.2,0,2.3,0.3,3.3,0.8
			c1,0.5,1.7,1.3,2.2,2.3c0.5,1,0.8,2.2,0.8,3.5v8.2C189.9,24.1,189.8,24.3,189.6,24.4z"/>
		<path class="st1" d="M202.6,15v-0.4c0-1-0.3-1.7-1-2.2c-0.6-0.5-1.5-0.8-2.5-0.8c-0.8,0-1.4,0.1-1.8,0.4c-0.4,0.3-0.9,0.7-1.2,1.2
			c-0.1,0.2-0.2,0.3-0.4,0.3c-0.1,0.1-0.3,0.1-0.6,0.1h-0.9c-0.2,0-0.4-0.1-0.6-0.2c-0.2-0.2-0.2-0.3-0.2-0.6
			c0.1-0.6,0.3-1.2,0.9-1.7c0.5-0.6,1.2-1.1,2.1-1.4c0.9-0.4,1.8-0.6,2.8-0.6c1.8,0,3.3,0.5,4.4,1.5c1.1,1,1.7,2.4,1.7,4.3v9
			c0,0.2-0.1,0.4-0.2,0.6s-0.3,0.2-0.6,0.2h-1.1c-0.2,0-0.4-0.1-0.6-0.2c-0.2-0.2-0.2-0.3-0.2-0.6v-1.2c-0.3,0.7-1,1.3-2,1.7
			c-1,0.4-2,0.6-3.1,0.6c-1,0-1.9-0.2-2.7-0.5c-0.8-0.4-1.4-0.9-1.8-1.5c-0.4-0.6-0.6-1.3-0.6-2.1c0-1.5,0.5-2.6,1.6-3.5
			c1.1-0.8,2.6-1.4,4.4-1.7L202.6,15z M202.6,17.3l-3.5,0.6c-1.3,0.2-2.3,0.5-3,1c-0.7,0.4-1.1,1-1.1,1.7c0,0.5,0.2,0.9,0.7,1.3
			s1.1,0.6,2.1,0.6c1.4,0,2.6-0.4,3.4-1.2s1.3-1.9,1.3-3.1L202.6,17.3L202.6,17.3z"/>
		<path class="st1" d="M219.5,4.6c0-0.2,0.1-0.4,0.2-0.6c0.2-0.2,0.3-0.2,0.6-0.2h1.1c0.2,0,0.4,0.1,0.6,0.2
			c0.2,0.2,0.2,0.3,0.2,0.6v19.3c0,0.2-0.1,0.4-0.2,0.6s-0.3,0.2-0.6,0.2h-1.1c-0.2,0-0.4-0.1-0.6-0.2c-0.2-0.2-0.2-0.3-0.2-0.6V23
			c-1,1.3-2.5,2-4.6,2c-1.2,0-2.3-0.3-3.3-0.9c-1-0.6-1.8-1.4-2.4-2.4c-0.6-1.1-0.9-2.3-1-3.7l0-1l0-0.9c0.1-1.4,0.4-2.6,1-3.7
			c0.6-1,1.4-1.9,2.4-2.4c1-0.6,2.1-0.9,3.3-0.9c1.1,0,2,0.2,2.8,0.6c0.8,0.4,1.3,0.9,1.8,1.4L219.5,4.6L219.5,4.6z M218.2,12.8
			c-0.8-0.8-1.8-1.1-3-1.1c-1.3,0-2.3,0.4-3,1.2s-1.2,1.9-1.2,3.4l0,0.8l0,0.8c0.1,1.4,0.5,2.5,1.2,3.4s1.8,1.2,3,1.2
			c1.2,0,2.2-0.4,3-1.1c0.8-0.8,1.2-1.8,1.3-3c0-0.2,0-0.6,0-1.2c0-0.6,0-1,0-1.1C219.4,14.6,219,13.5,218.2,12.8z"/>
		<path class="st1" d="M239.3,17c0,0.5,0,0.9-0.1,1.4c-0.2,2-0.9,3.6-2.1,4.8c-1.2,1.2-2.8,1.8-4.9,1.8c-2.1,0-3.7-0.6-4.9-1.8
			s-1.9-2.8-2.1-4.8c0-0.2,0-0.7,0-1.4c0-0.7,0-1.2,0-1.4c0.2-2,0.8-3.6,2.1-4.8c1.2-1.2,2.9-1.8,4.9-1.8c2.1,0,3.7,0.6,4.9,1.8
			c1.2,1.2,1.9,2.8,2.1,4.8C239.2,16.1,239.3,16.5,239.3,17z M235.3,12.8c-0.7-0.8-1.7-1.1-3-1.1c-1.3,0-2.3,0.4-3,1.1
			c-0.7,0.8-1.1,1.8-1.2,3c0,0.2,0,0.7,0,1.3c0,0.6,0,1,0,1.2c0.1,1.3,0.5,2.3,1.2,3c0.7,0.8,1.7,1.1,3,1.1c1.3,0,2.3-0.4,3-1.1
			c0.7-0.8,1.1-1.8,1.2-3c0-0.4,0.1-0.8,0.1-1.2s0-0.8-0.1-1.3C236.4,14.5,236,13.5,235.3,12.8z"/>
	</g>
</g>
</svg>
