<?xml version="1.0" encoding="utf-8"?>
<!-- Generator: Adobe Illustrator 19.2.1, SVG Export Plug-In . SVG Version: 6.00 Build 0)  -->
<svg version="1.1" id="Layer_1" xmlns="http://www.w3.org/2000/svg" xmlns:xlink="http://www.w3.org/1999/xlink" x="0px" y="0px"
	 viewBox="0 0 868.3 212.6" style="enable-background:new 0 0 868.3 212.6;" xml:space="preserve">
<style type="text/css">
	.st0{fill:#FFFFFF;}
</style>
<g>
	<path class="st0" d="M188.1,133.3H182V99.2c0-3.7,0.2-8,0.5-12.7h-0.3l-18.1,46.8h-4.9l-17.9-46.9h-0.3c0.3,3.9,0.5,8.3,0.5,13.2
		v33.6h-5.7V80.4h9.3l16.7,43.6h0.3l16.9-43.6h9.2V133.3z"/>
	<path class="st0" d="M208.8,133.3h-6.1V80.4h6.1V133.3z"/>
	<path class="st0" d="M244.8,134c-7.8,0-13.8-2.4-18-7.1c-4.2-4.7-6.3-11.4-6.3-20.1c0-0.1,0-0.2,0-0.4c0-5.3,1-9.9,3.1-14
		c2-4.1,5-7.2,8.8-9.4c3.8-2.2,8.3-3.3,13.3-3.3c0.1,0,0.2,0,0.3,0c5.5,0,10.4,1,14.5,3l-2.6,5.3c-4-1.9-8-2.8-12-2.8
		c-5.8,0-10.4,1.9-13.8,5.8c-3.4,3.9-5,9.2-5,16s1.6,12.1,4.8,15.9c3.3,3.8,7.9,5.6,13.9,5.6c3.7,0,7.9-0.7,12.6-2v5.4
		C254.6,133.3,250.1,134,244.8,134z"/>
	<path class="st0" d="M270,80.4h14.5c6.5,0,11.2,1.2,14.4,3.7c3.1,2.5,4.7,6.2,4.7,11.2c0,7-3.5,11.7-10.6,14.2l14.4,23.8H300
		l-12.8-22h-11v22H270V80.4z M276.1,85.8V106h8.4c4.3,0,7.5-0.9,9.5-2.6c2-1.7,3.1-4.3,3.1-7.8s-1-6-3.1-7.5s-5.4-2.3-9.9-2.3H276.1
		z"/>
	<path class="st0" d="M313,106.8c0-8.6,2.1-15.3,6.4-20.1c4.2-4.7,10.2-7.1,17.9-7.1s13.7,2.4,18,7.2s6.4,11.5,6.4,20
		c0,8.5-2.1,15.1-6.4,20c-4.3,4.8-10.3,7.3-18,7.3s-13.7-2.4-17.9-7.1C315.1,122.1,313,115.5,313,106.8z M355.1,106.8
		c0-7.1-1.5-12.6-4.5-16.2c-3-3.7-7.4-5.5-13.2-5.5c-5.8,0-10.3,1.9-13.3,5.6c-3.1,3.7-4.6,9.1-4.6,16.2c0,7.1,1.5,12.5,4.6,16.2
		c3,3.7,7.5,5.6,13.3,5.6c5.8,0,10.2-1.8,13.2-5.5C353.6,119.4,355.1,114,355.1,106.8z"/>
	<path class="st0" d="M432.3,133.3h-6.4l-6.6-16.8h-21.2l-6.5,16.8h-6.2l20.9-53.1h5.2L432.3,133.3z M417.4,110.9l-6.1-16.4
		c-0.8-2.1-1.6-4.7-2.5-7.6c-0.5,2.3-1.3,4.8-2.3,7.6l-6.2,16.4H417.4z"/>
	<path class="st0" d="M480.8,133.3h-7l-28.9-44.4h-0.3c0.4,5,0.6,9.8,0.6,14.3v30.1h-5.7V80.4h6.9l28.8,44.2h0.3l-0.3-6.3
		c-0.1-2.5-0.2-4.3-0.2-5.4c0-1.1,0-1.8,0-2.2V80.4h5.8V133.3z"/>
	<path class="st0" d="M501.5,133.3h-6.1V80.4h6.1V133.3z"/>
	<path class="st0" d="M568.4,133.3h-6.1V99.2c0-3.7,0.2-8,0.5-12.7h-0.3l-18.1,46.8h-4.9l-17.9-46.9h-0.3c0.3,3.9,0.5,8.3,0.5,13.2
		v33.6H516V80.4h9.3L542,124h0.3l16.9-43.6h9.2V133.3z"/>
	<path class="st0" d="M622.5,133.3h-6.4l-6.6-16.8h-21.2l-6.5,16.8h-6.2l20.9-53.1h5.2L622.5,133.3z M607.6,110.9l-6.1-16.4
		c-0.8-2.1-1.6-4.7-2.5-7.6c-0.5,2.3-1.3,4.8-2.3,7.6l-6.2,16.4H607.6z"/>
	<path class="st0" d="M662.8,85.9H646v47.4h-6.1V85.9h-16.7v-5.5h39.6V85.9z"/>
	<path class="st0" d="M676.9,133.3h-6.1V80.4h6.1V133.3z"/>
	<path class="st0" d="M688.6,106.8c0-8.6,2.1-15.3,6.4-20.1s10.2-7.1,17.9-7.1c7.7,0,13.7,2.4,18,7.2c4.3,4.8,6.4,11.5,6.4,20
		c0,8.5-2.1,15.1-6.4,20c-4.3,4.8-10.3,7.3-18,7.3c-7.7,0-13.7-2.4-17.9-7.1C690.7,122.1,688.6,115.5,688.6,106.8z M730.8,106.8
		c0-7.1-1.5-12.6-4.5-16.2c-3-3.7-7.4-5.5-13.2-5.5c-5.8,0-10.3,1.9-13.3,5.6c-3,3.7-4.6,9.1-4.6,16.2c0,7.1,1.5,12.5,4.6,16.2
		c3,3.7,7.5,5.6,13.3,5.6c5.8,0,10.2-1.8,13.2-5.5C729.3,119.4,730.8,114,730.8,106.8z"/>
	<path class="st0" d="M790.4,133.3h-7l-28.9-44.4h-0.3c0.4,5,0.6,9.8,0.6,14.3v30.1h-5.7V80.4h6.9l28.8,44.2h0.3l-0.3-6.3
		c-0.1-2.5-0.2-4.3-0.2-5.4c0-1.1,0-1.8,0-2.2V80.4h5.7V133.3z"/>
	<path class="st0" d="M816.1,128.6c4.1,0,7.1-0.8,9.2-2.3c2.1-1.5,3.1-3.7,3.1-6.5c0-1.8-0.4-3.3-1.1-4.5c-0.7-1.2-2-2.3-3.7-3.2
		c-1.7-1-4.3-2.1-7.9-3.4c-4.9-1.8-8.5-3.9-10.6-6.3c-2.1-2.4-3.1-5.6-3.1-9.6c0-4,1.5-7.2,4.6-9.6c3.1-2.4,7.2-3.6,12.3-3.6
		s9.9,1,14.3,2.9l-1.9,5.4c-4.3-1.8-8.6-2.7-12.7-2.7c-3.3,0-5.8,0.7-7.6,2.1c-1.8,1.4-2.7,3.3-2.7,5.8c0,1.8,0.3,3.3,1,4.5
		c0.7,1.2,1.8,2.2,3.3,3.2c1.6,1,4,2,7.4,3.3c5.6,2,9.4,4.2,11.5,6.4c2.1,2.3,3.1,5.2,3.1,8.8c0,4.6-1.7,8.2-5.1,10.9
		c-3.4,2.6-8.1,3.9-14.1,3.9c-6.1,0-10.7-0.8-14.1-2.4v-5.9C806.1,127.6,811,128.6,816.1,128.6z"/>
</g>
<g>
	<path class="st0" d="M48.3,86.4c5.1-5.1,11.3-7.7,18.5-7.7c7.2,0,13.4,2.6,18.5,7.7c5.2,5.1,7.7,11.3,7.7,18.5v21
		c0,1.4-0.5,2.6-1.5,3.6c-1,1-2.3,1.5-3.7,1.5h-21c-7.2,0-13.4-2.6-18.5-7.7c-5.1-5.1-7.7-11.3-7.7-18.5
		C40.6,97.6,43.2,91.5,48.3,86.4z M52,119.7c4.1,4.1,9,6.1,14.8,6.1c5.8,0,10.7-2,14.8-6.1c4.1-4.1,6.1-9,6.1-14.8
		c0-5.8-2-10.8-6.1-14.8c-4.1-4.1-9-6.1-14.8-6.1c-5.8,0-10.7,2-14.8,6.1c-4.1,4.1-6.1,9-6.1,14.8C45.9,110.7,47.9,115.6,52,119.7z
		 M69.4,91.7v10.5h10.4v5.2H69.4V118h-5.3v-10.5H53.7v-5.2h10.4V91.7H69.4z"/>
</g>
</svg>
