<?xml version="1.0" encoding="utf-8"?>
<!-- Generator: Adobe Illustrator 19.2.1, SVG Export Plug-In . SVG Version: 6.00 Build 0)  -->
<svg version="1.1" xmlns="http://www.w3.org/2000/svg" xmlns:xlink="http://www.w3.org/1999/xlink" x="0px" y="0px"
	 viewBox="0 0 595.3 212.6" style="enable-background:new 0 0 595.3 212.6;" xml:space="preserve">
<style type="text/css">
	.st0{fill:#FFFFFF;}
	.st1{fill:none;stroke:#FFFFFF;stroke-width:3.7;stroke-linecap:round;stroke-linejoin:round;stroke-miterlimit:10;}
	.st2{fill:none;stroke:#FFFFFF;stroke-width:3.7;}
</style>
<g id="Layer_13">
	<path class="st0" d="M108.1,130.2c0-1.5-0.2-2.8-0.7-4s-1.3-2.2-2.4-3.2c-1.1-1-2.7-1.8-4.5-2.6c-1.9-0.8-4.2-1.6-7-2.4
		c-2.7-0.8-5.2-1.6-7.3-2.5c-2.2-0.9-4-2-5.5-3.2c-1.5-1.2-2.7-2.6-3.5-4.2c-0.8-1.6-1.2-3.4-1.2-5.6c0-2.1,0.4-4,1.3-5.7
		c0.9-1.7,2.1-3.2,3.7-4.4c1.6-1.2,3.5-2.2,5.8-2.9c2.2-0.7,4.7-1,7.3-1c2.8,0,5.4,0.4,7.7,1.3c2.3,0.8,4.2,2,5.8,3.5
		c1.6,1.5,2.8,3.2,3.7,5.1c0.9,2,1.3,4.1,1.3,6.3h-4.6c0-1.8-0.3-3.4-0.9-4.9c-0.6-1.5-1.5-2.8-2.7-3.9c-1.2-1.1-2.6-1.9-4.4-2.6
		c-1.7-0.6-3.7-0.9-5.9-0.9c-2.2,0-4.2,0.3-5.9,0.8c-1.7,0.5-3.1,1.2-4.2,2.2c-1.1,0.9-2,2-2.6,3.2c-0.6,1.2-0.9,2.5-0.9,3.9
		c0,1.3,0.2,2.5,0.7,3.6c0.5,1.1,1.3,2.1,2.4,3c1.1,0.9,2.6,1.8,4.5,2.6c1.9,0.8,4.1,1.6,6.9,2.3c2.8,0.8,5.4,1.7,7.6,2.6
		c2.2,0.9,4.1,2,5.6,3.3c1.5,1.3,2.7,2.7,3.5,4.4c0.8,1.7,1.2,3.6,1.2,5.8c0,2.2-0.5,4.2-1.4,5.9c-0.9,1.7-2.2,3.2-3.9,4.4
		c-1.6,1.2-3.6,2.1-5.9,2.8c-2.3,0.6-4.7,1-7.4,1c-1.6,0-3.2-0.1-4.8-0.4c-1.6-0.3-3.2-0.7-4.7-1.2c-1.5-0.6-2.9-1.3-4.2-2.1
		c-1.3-0.9-2.4-1.9-3.4-3.1c-1-1.2-1.7-2.6-2.3-4.1c-0.6-1.5-0.8-3.3-0.8-5.2h4.6c0,2.3,0.5,4.2,1.4,5.8c0.9,1.6,2.2,2.8,3.6,3.8
		c1.5,1,3.2,1.7,5,2.1c1.9,0.4,3.7,0.6,5.6,0.6c2.1,0,4-0.2,5.7-0.7c1.7-0.5,3.2-1.2,4.4-2.1c1.2-0.9,2.2-2,2.8-3.2
		C107.8,133.1,108.1,131.8,108.1,130.2z"/>
</g>
<g id="Layer_12">
	<path class="st0" d="M131.8,143.5h-4.6v-54h4.6V143.5z"/>
</g>
<g id="Layer_11">
	<path class="st0" d="M154.7,89.5l19.9,47.7l20-47.7h6.1v54h-4.6v-23.6l0.4-24l-20.1,47.6h-3.5l-20-47.5l0.4,23.9v23.6h-4.6v-54
		H154.7z"/>
</g>
<g id="Layer_10">
	<path class="st0" d="M221.3,121.5v22h-4.6v-54h18.4c3,0,5.6,0.4,7.8,1.2c2.3,0.8,4.2,1.9,5.7,3.3c1.5,1.4,2.7,3.1,3.5,5.1
		c0.8,2,1.2,4.2,1.2,6.5c0,2.5-0.4,4.7-1.2,6.7c-0.8,2-1.9,3.6-3.5,5c-1.5,1.4-3.4,2.4-5.7,3.1c-2.3,0.7-4.9,1.1-7.9,1.1H221.3z
		 M221.3,117.6h13.8c2.4,0,4.5-0.3,6.2-0.9c1.7-0.6,3.1-1.4,4.2-2.5c1.1-1.1,1.9-2.3,2.4-3.8c0.5-1.5,0.8-3,0.8-4.7
		c0-1.7-0.3-3.2-0.8-4.7c-0.5-1.5-1.3-2.8-2.4-3.9c-1.1-1.1-2.5-2-4.2-2.7c-1.7-0.7-3.8-1-6.2-1h-13.8V117.6z"/>
</g>
<g id="Layer_9">
	<path class="st0" d="M270.4,139.6H297v3.9h-31.3v-54h4.6V139.6z"/>
</g>
<g id="Layer_8">
	<path class="st0" d="M339.4,117.6h-25.3v22h29.1v3.9h-33.6v-54H343v3.9h-28.9v20.4h25.3V117.6z"/>
</g>
<g id="Layer_7">
	<path class="st0" d="M397.9,126.4c-0.3,2.5-0.9,4.9-1.9,7.1c-1,2.2-2.3,4.1-4,5.7c-1.7,1.6-3.7,2.8-6.2,3.7
		c-2.4,0.9-5.3,1.4-8.5,1.4c-3.2,0-6.1-0.6-8.7-1.8c-2.6-1.2-4.8-2.9-6.7-5.1c-1.8-2.2-3.3-4.8-4.3-7.9c-1-3.1-1.5-6.5-1.5-10.3
		v-5.4c0-3.8,0.5-7.2,1.5-10.3c1-3.1,2.5-5.7,4.3-7.9c1.9-2.2,4.2-3.9,6.8-5.1c2.7-1.2,5.7-1.8,9-1.8c3,0,5.7,0.4,8.1,1.3
		c2.3,0.9,4.3,2.1,6,3.7c1.6,1.6,3,3.5,3.9,5.7c1,2.2,1.6,4.7,1.9,7.3h-7.2c-0.3-1.9-0.7-3.6-1.3-5.1c-0.6-1.5-1.4-2.8-2.4-3.9
		c-1-1.1-2.2-1.9-3.7-2.4c-1.5-0.6-3.3-0.9-5.3-0.9c-2.4,0-4.5,0.5-6.3,1.4c-1.8,0.9-3.3,2.2-4.6,3.9c-1.2,1.7-2.1,3.7-2.8,6
		c-0.6,2.4-0.9,5-0.9,7.8v5.5c0,2.6,0.3,5.1,0.8,7.5c0.6,2.3,1.4,4.4,2.5,6.1c1.1,1.7,2.6,3.1,4.3,4.1c1.8,1,3.8,1.5,6.2,1.5
		c2.3,0,4.2-0.3,5.8-0.8c1.6-0.5,2.9-1.3,3.9-2.4c1-1,1.8-2.3,2.4-3.8c0.6-1.5,1-3.2,1.3-5.1H397.9z"/>
</g>
<g id="Layer_6">
	<path class="st0" d="M452.9,118.2c0,4.1-0.5,7.7-1.5,10.9c-1,3.2-2.5,5.9-4.4,8.2c-1.9,2.3-4.2,4-6.8,5.2c-2.7,1.2-5.7,1.8-8.9,1.8
		c-3.2,0-6.1-0.6-8.8-1.8c-2.7-1.2-5-2.9-6.9-5.2c-1.9-2.3-3.4-5-4.5-8.2c-1.1-3.2-1.6-6.8-1.6-10.9v-3.4c0-4,0.5-7.7,1.6-10.9
		c1.1-3.2,2.5-6,4.5-8.2c1.9-2.3,4.2-4,6.9-5.2c2.7-1.2,5.6-1.8,8.8-1.8c3.3,0,6.3,0.6,9,1.8c2.7,1.2,5,2.9,6.9,5.2
		c1.9,2.3,3.4,5,4.4,8.2c1,3.2,1.5,6.9,1.5,10.9V118.2z M445.8,114.7c0-3.2-0.3-6.1-1-8.5c-0.7-2.5-1.6-4.6-2.9-6.2
		c-1.3-1.7-2.8-3-4.6-3.8c-1.8-0.9-3.9-1.3-6.2-1.3c-2.2,0-4.2,0.4-6,1.3c-1.8,0.9-3.3,2.1-4.6,3.8c-1.3,1.7-2.3,3.8-3,6.2
		c-0.7,2.5-1,5.3-1,8.5v3.5c0,3.2,0.4,6.1,1.1,8.6c0.7,2.5,1.7,4.6,3,6.3c1.3,1.7,2.8,3,4.6,3.8c1.8,0.9,3.8,1.3,6,1.3
		c2.3,0,4.4-0.4,6.2-1.3c1.8-0.9,3.3-2.1,4.6-3.8c1.2-1.7,2.2-3.8,2.8-6.3c0.6-2.5,1-5.3,1-8.6V114.7z"/>
</g>
<g id="Layer_5">
	<path class="st0" d="M475,89.5l17.7,44.1l17.7-44.1h9.2v54h-7.1v-21l0.7-22.7l-17.7,43.7h-5.5l-17.7-43.6l0.7,22.6v21h-7.1v-54H475
		z"/>
</g>
<g id="Layer_2">
	<path class="st0" d="M355.2,77.7c0,2,1.6,3.7,3.7,3.7s3.7-1.6,3.7-3.7c0-2-1.6-3.7-3.7-3.7S355.2,75.7,355.2,77.7"/>
</g>
<g id="Layer_3">
	<path class="st1" d="M351.6,63.9h-12.2 M345.4,57.8V70"/>
</g>
<g id="Layer_4">
	<ellipse class="st2" cx="363.9" cy="47.2" rx="5" ry="5"/>
</g>
</svg>
