<?xml version="1.0" encoding="utf-8"?>
<!-- Generator: Adobe Illustrator 19.2.1, SVG Export Plug-In . SVG Version: 6.00 Build 0)  -->
<svg version="1.1" id="Layer_1" xmlns="http://www.w3.org/2000/svg" xmlns:xlink="http://www.w3.org/1999/xlink" x="0px" y="0px"
	 viewBox="0 0 595.3 212.6" style="enable-background:new 0 0 595.3 212.6;" xml:space="preserve">
<style type="text/css">
	.st0{fill:#FFFFFF;}
</style>
<g>
	<path class="st0" d="M171.1,133.3H165l-10.7-35.4c-0.6-1.7-1.2-3.7-1.7-6.1c-0.6-2.3-0.9-3.7-0.9-4.2c-0.6,3.2-1.4,6.7-2.5,10.5
		l-10.3,35.1h-6.1l-14.1-52.9h6.5l8.4,32.7c1.1,4.5,2,8.7,2.5,12.4c0.6-4.3,1.6-8.6,2.9-12.9l9.5-32.1h6.5l9.9,32.4
		c1.2,3.7,2.1,7.9,2.9,12.7c0.5-3.4,1.3-7.6,2.6-12.5l8.3-32.6h6.5L171.1,133.3z"/>
	<path class="st0" d="M223,85.9h-23.3v17h21.9v5.4h-21.9v19.5H223v5.5h-29.5V80.4H223V85.9z"/>
	<path class="st0" d="M267.7,85.9h-16.7v47.4h-6.1V85.9h-16.7v-5.5h39.6V85.9z"/>
	<path class="st0" d="M315.8,133.3h-6.1v-24.9h-27.8v24.9h-6.1V80.4h6.1v22.5h27.8V80.4h6.1V133.3z"/>
	<path class="st0" d="M359.8,85.9h-23.3v17h21.9v5.4h-21.9v19.5h23.3v5.5h-29.5V80.4h29.5V85.9z"/>
	<path class="st0" d="M371.5,80.4H386c6.5,0,11.2,1.2,14.4,3.7c3.1,2.5,4.7,6.2,4.7,11.2c0,7-3.5,11.7-10.6,14.2l14.4,23.8h-7.3
		l-12.8-22h-11v22h-6.1V80.4z M377.6,85.8V106h8.4c4.3,0,7.5-0.9,9.5-2.6c2-1.7,3.1-4.3,3.1-7.8s-1-6-3.1-7.5
		c-2.1-1.6-5.4-2.3-9.9-2.3H377.6z"/>
	<path class="st0" d="M476.1,133.3h-6.4l-6.6-16.8H442l-6.5,16.8h-6.2l20.9-53.1h5.2L476.1,133.3z M461.2,110.9l-6.1-16.4
		c-0.8-2.1-1.6-4.7-2.5-7.6c-0.5,2.3-1.3,4.8-2.3,7.6l-6.2,16.4H461.2z"/>
	<path class="st0" d="M483.4,80.4h13.7c13.2,0,19.8,5.1,19.8,15.4c0,5.4-1.8,9.5-5.5,12.3s-8.9,4.3-15.7,4.3h-6.2v20.8h-6.1V80.4z
		 M489.5,85.7v21.5h5.5c5.5,0,9.4-0.9,11.8-2.7c2.4-1.8,3.6-4.5,3.6-8.2c0-3.7-1.2-6.4-3.5-8.1c-2.3-1.7-5.9-2.6-10.7-2.6H489.5z"/>
	<path class="st0" d="M527.9,80.4h13.7c13.2,0,19.8,5.1,19.8,15.4c0,5.4-1.8,9.5-5.5,12.3s-8.9,4.3-15.7,4.3h-6.2v20.8h-6.1V80.4z
		 M534.1,85.7v21.5h5.5c5.5,0,9.4-0.9,11.8-2.7c2.4-1.8,3.6-4.5,3.6-8.2c0-3.7-1.2-6.4-3.5-8.1c-2.3-1.7-5.9-2.6-10.7-2.6H534.1z"/>
</g>
<g>
	<path class="st0" d="M79.4,99.7c3.4,0.2,6.3,1.6,8.6,4.1c2.3,2.5,3.5,5.5,3.5,8.9c0,3.6-1.3,6.7-3.9,9.3s-5.7,3.9-9.3,3.9h-34
		c-4.3,0-8-1.5-11.1-4.6c-3.1-3.1-4.6-6.8-4.6-11.1c0-4.1,1.3-7.6,4-10.6s6-4.6,9.9-5c1.7-3.3,4.1-5.9,7.2-7.8
		c3.1-1.9,6.5-2.9,10.2-2.9c4.7,0,8.9,1.5,12.5,4.5C76.3,91.4,78.5,95.2,79.4,99.7z M78.4,120.5c2.2,0,4.1-0.8,5.6-2.3
		c1.5-1.6,2.3-3.4,2.3-5.5c0-2.1-0.8-4-2.3-5.5c-1.5-1.6-3.4-2.3-5.6-2.3h-3.9v-1.3c0-3.9-1.4-7.3-4.2-10.1
		c-2.8-2.8-6.2-4.2-10.1-4.2c-4.7,0-8.6,1.9-11.5,5.8c3.4,1,6.1,2.9,8.3,5.6c2.2,2.8,3.3,6,3.3,9.6h-5.3c0-2.9-1-5.4-3.1-7.5
		c-2-2-4.5-3.1-7.4-3.1c-2.9,0-5.3,1-7.4,3.1c-2,2-3.1,4.5-3.1,7.4c0,2.9,1,5.4,3.1,7.4c2,2,4.5,3.1,7.4,3.1H78.4z"/>
</g>
</svg>
