<svg xmlns="http://www.w3.org/2000/svg" viewBox="7768.782 6805.579 377.568 104.88">
  <defs>
    <style>
      .cls-1 {
        fill: #333;
      }
    </style>
  </defs>
  <path id="Title_1" data-name="Title 1" class="cls-1" d="M-146.763-69.483a29.757,29.757,0,0,1,11.454-2.277h6.624a3.582,3.582,0,0,1,2.622,1.1,3.582,3.582,0,0,1,1.1,2.622v21.528a3.582,3.582,0,0,1-1.1,2.622,3.582,3.582,0,0,1-2.622,1.1h-17.8q-8.28,0-8.28,8.28V-3.726a3.582,3.582,0,0,1-1.1,2.622A3.582,3.582,0,0,1-158.493,0h-26.22a3.582,3.582,0,0,1-2.622-1.1,3.582,3.582,0,0,1-1.1-2.622V-68.034a3.582,3.582,0,0,1,1.1-2.622,3.582,3.582,0,0,1,2.622-1.1h24.15a3.582,3.582,0,0,1,2.622,1.1,3.582,3.582,0,0,1,1.1,2.622v4.83A35.922,35.922,0,0,1-146.763-69.483Zm77.142-24.771a3.582,3.582,0,0,1,1.1-2.622,3.582,3.582,0,0,1,2.622-1.1h25.53a3.582,3.582,0,0,1,2.622,1.1,3.582,3.582,0,0,1,1.1,2.622V-3.726a3.582,3.582,0,0,1-1.1,2.622A3.582,3.582,0,0,1-40.365,0h-23.46a3.582,3.582,0,0,1-2.622-1.1,3.582,3.582,0,0,1-1.1-2.622V-6.9q-7.314,8.28-20.424,8.28-12.834,0-20.7-7.728t-8.556-24.15l-.138-5.52.138-5.382q.552-15.594,8.625-23.667t20.631-8.073q11.178,0,18.354,6.486Zm-11.937,69q1.449,1.932,5.037,1.932t5.106-2a11.187,11.187,0,0,0,1.794-6q.276-4.14.276-5.106t-.276-5.106a8.458,8.458,0,0,0-1.863-5.175q-1.587-1.725-5.037-1.725-3.588,0-5.037,1.932a12.284,12.284,0,0,0-1.863,6.072q-.138,1.38-.138,4.554t.138,4.554A12.284,12.284,0,0,0-81.558-25.254Zm89.217-55.2a3.582,3.582,0,0,1-2.622,1.1H-18.285a3.582,3.582,0,0,1-2.622-1.1,3.582,3.582,0,0,1-1.1-2.622v-16.7a3.582,3.582,0,0,1,1.1-2.622,3.582,3.582,0,0,1,2.622-1.1H5.037a3.582,3.582,0,0,1,2.622,1.1,3.582,3.582,0,0,1,1.1,2.622v16.7A3.582,3.582,0,0,1,7.659-80.454ZM-21.6-1.1a3.582,3.582,0,0,1-1.1-2.622V-68.034a3.582,3.582,0,0,1,1.1-2.622,3.582,3.582,0,0,1,2.622-1.1h24.7a3.582,3.582,0,0,1,2.622,1.1,3.582,3.582,0,0,1,1.1,2.622V-3.726A3.582,3.582,0,0,1,8.349-1.1,3.582,3.582,0,0,1,5.727,0h-24.7A3.582,3.582,0,0,1-21.6-1.1ZM28.7-34.017Q21.6-39.468,21.6-49.542a18.948,18.948,0,0,1,4.071-11.523q4.071-5.451,12.006-8.763A48.734,48.734,0,0,1,56.511-73.14,51.96,51.96,0,0,1,75.555-69.9q8.28,3.243,12.7,7.935t4.416,8.832a3.428,3.428,0,0,1-.966,2.415,2.822,2.822,0,0,1-2.07,1.035H66.447a5.943,5.943,0,0,1-2.553-.621,14,14,0,0,1-2.415-1.449,9.211,9.211,0,0,0-5.106-2.07,3.131,3.131,0,0,0-1.932.621,1.9,1.9,0,0,0-.828,1.587,3.085,3.085,0,0,0,.9,2.277,10.926,10.926,0,0,0,4.14,1.863A75.636,75.636,0,0,0,68.793-45.54q13.8,2.07,20.355,8.625T95.7-22.356Q95.7-11.178,85.629-4.9T57.063,1.38q-12.42,0-20.7-3.243T24.15-9.8q-3.933-4.692-3.933-8.832a3.428,3.428,0,0,1,.966-2.415,3.09,3.09,0,0,1,2.346-1.035H47.541a8.849,8.849,0,0,1,4.83,1.932,20.191,20.191,0,0,0,2.9,1.656,6.722,6.722,0,0,0,2.76.552,4.371,4.371,0,0,0,2.208-.552A1.687,1.687,0,0,0,61.2-20.01a3.482,3.482,0,0,0-.828-2.346q-.828-.966-3.933-1.932A96.118,96.118,0,0,0,46.851-26.5Q35.811-28.566,28.7-34.017ZM139.587-1.1A3.582,3.582,0,0,1,136.965,0h-26.91a3.582,3.582,0,0,1-2.622-1.1,3.582,3.582,0,0,1-1.1-2.622V-94.254a3.582,3.582,0,0,1,1.1-2.622,3.582,3.582,0,0,1,2.622-1.1h26.91a3.582,3.582,0,0,1,2.622,1.1,3.582,3.582,0,0,1,1.1,2.622v29.67a26.073,26.073,0,0,1,9.177-6.279,30.3,30.3,0,0,1,11.8-2.277,27.829,27.829,0,0,1,13.524,3.381,25.249,25.249,0,0,1,10.074,10.488q3.864,7.107,3.864,17.457V-3.726a3.582,3.582,0,0,1-1.1,2.622A3.582,3.582,0,0,1,185.4,0H158.355a3.582,3.582,0,0,1-2.622-1.1,3.582,3.582,0,0,1-1.1-2.622V-40.848a8.032,8.032,0,0,0-1.794-5.658,6.624,6.624,0,0,0-5.106-1.932,6.852,6.852,0,0,0-5.175,1.932,7.841,7.841,0,0,0-1.863,5.658V-3.726A3.582,3.582,0,0,1,139.587-1.1Z" transform="translate(7957.221 6909.079)"/>
</svg>
